<?xml version="1.0" encoding="UTF-8"?>
<svg id="Layer_1" data-name="Layer 1" xmlns="http://www.w3.org/2000/svg" viewBox="0 0 171.08 171.08">
  <defs>
    <style>
      .cls-1, .cls-2 {
        fill: #231f20;
      }

      .cls-3 {
        fill: #ffde17;
      }

      .cls-3, .cls-2 {
        stroke: #231f20;
        stroke-miterlimit: 10;
      }
    </style>
  </defs>
  <path class="cls-2" d="M85.54,170.58c-11.48,0-22.62-2.25-33.1-6.68-10.13-4.28-19.22-10.41-27.03-18.22-7.81-7.81-13.94-16.9-18.22-27.03C2.75,108.16.5,97.02.5,85.54s2.25-22.62,6.68-33.1c4.28-10.13,10.41-19.22,18.22-27.03,7.81-7.81,16.9-13.94,27.03-18.22C62.92,2.75,74.06.5,85.54.5s22.62,2.25,33.1,6.68c10.13,4.28,19.22,10.41,27.03,18.22,7.81,7.81,13.94,16.9,18.22,27.03,4.44,10.49,6.68,21.62,6.68,33.1s-2.25,22.62-6.68,33.1c-4.28,10.13-10.41,19.22-18.22,27.03-7.81,7.81-16.9,13.94-27.03,18.22-10.49,4.44-21.62,6.68-33.1,6.68Z"/>
  <circle class="cls-3" cx="85.54" cy="85.54" r="82.39"/>
  <path class="cls-1" d="M85.13,52.45c-.98-1.58-3.12-3.72-2.29-5.76.18-.44,2.33-2.52,2.85-3.14,1.31-1.56,2.56-3.41,3.93-4.87.52-.55,2.15-2.4,2.97-1.92,2.99,5.29.96,11.54.44,17.16,4.18,1.76,8.51,3.85,12.31,6.32,1.96,1.28,3.91,2.64,4.86,4.88s.51,5.35,2.66,6.89c1.45,1.04,4.66,2.32,6.42,3.13,5.03,2.33,10.24,4.28,15.24,6.67,2.68,1.82,2.49,3.42,1.15,6.09-1.2,2.4-3.2,3.76-4.47,5.83-.97,1.59-1.34,3.23-2.46,4.84-3.93,5.6-9.35,6.53-15.76,5.72-2.81-.35-7.69-1.82-10.27-1.04-7.49,2.26-1.21,12.44,3.6,14.09-1.65,1.17-4.14,1.05-6.03.6-.97-.23-1.7-.67-2.58-1.07.98,4.21.19,9.15-2.81,12.36l-.65-2.75c-.6-.28-1.65,1.57-2.06,2.01-2.33,2.5-4.99,4.71-7.87,6.55,0-1.04-.28-1.6-.69-2.5-1.88-4.04-7.79-9.33-11.41-12-.55-.41-2.41-1.78-2.89-1.98-.11-.05-.32-.03-.28.09l2.95,6.6,1.27,3.98c-7.67-4.7-16.56-9.33-20.88-17.6-.33-.03-.2.63-.18.84.23,2.66,1.2,6.28,2,8.86.12.39.54.89.34,1.16-3.14-2.62-6.48-5.18-8.86-8.55-2.07-2.94-3.24-6.13-4.62-9.42-1.1,1.14-2.3,2.86-2.7,4.41-.2.75-.02,1.74-.57,2.14-4.86-9.2-.48-19.94,5.62-27.34-3.38,1.2-6.17,3.55-8.9,5.8.08-2.11,1.11-4.64,1.99-6.62,3.05-6.86,8.41-12.69,15.14-16.04l-.57-.1-6.55,1.32c3.86-4.44,8.38-8.61,14.01-10.61.44-5.61,3.91-9.91,6.85-14.4,1.15-1.76,1.95-3.59,3.38-5.23.42-.48,1.76-2.03,2.34-1.78,1.11.49,3.13,3.13,3.87,4.19,3,4.29,5.06,10.06,10.18,12.2ZM79.37,57.09c-.21-.21-1.22-3.34-1.52-4.01-1.71-3.89-4.27-7.76-6.87-11.11-5.4,5.96-8.01,15.63-3.45,22.83l1.49-.66c-2.15-5.38-1.92-12.15,1.21-17.12,1.12,1.19,2.08,2.69,2.75,4.18.73,1.62,1.69,4.51,2,6.25.07.39-.13.26-.42.23-.57-.06-1.26-.33-1.8-.55-.32.44.86,4.8,2.25,4.04.79-.5,5.29-2.79,5.24-3.57-.18-.33-.68-.32-.88-.52ZM125.76,82.98c-4.31-3.25-9.63-4.87-14.24-7.58-3.74-2.2-3.05-3.33-4.25-6.98-.56-1.69-1.35-2.89-2.67-4.07-.55-.49-1.38-1.1-2.06-1.4-.24.25,3.32,4.9,2.24,5.99l-3.05-2.28c-5.82-3.51-8.19-.8-13.53.78-.27.08-.33-.11-.27.38,3.46,1.17,6.99-.13,10.43,1.28,2.45,1.01,6.59,4.98,8.89,6.85.2.16.47,0,.35.49-1.88.14-3.66-.58-5.37-1.28-.43-.18-1.99-1.1-2.21-1.09-.21.01-1.24.93-2.08,1.04-3.14.43-4.48-1.61-5.78-4.04l-4.79.88c-.34.38,3.25,4.17,3.74,4.59,2.67,2.26,6.51,3.35,9.93,3.84-1.68,2.08-5.03,2.64-7.59,2.81-3.82.25-7.56-.7-11.33-.94l2.81-5.99c-8.5,1.29-14.53,7.86-17.6,15.54,2.26-1.73,4.82-3.63,7.68-4.12-3.05,4.88-4.28,11.48-2.43,17.04l1.46-2.93c1.55-2.39,3.83-5.34,6.77-5.87-.66,1.92-1.37,4.1-1.66,6.11-1.39,9.59,6.51,13.9,7.82,22.47.03.22-.14,2.28.39,1.76,1.8-3.38,2.33-7.14,2.07-10.96-.19-2.86-1.33-5.77-.57-8.7-1.84.8-2.89,2.76-3.18,4.68-.49.05-.3,0-.38-.28-3.33-11.09,6.94-13.05,15.45-12.46,6.3.44,15.84,4,21.7,1.28.42-.19,2.4-1.49,1.99-2.04-4.4,1.07-9,.57-13.33-.62-4.39-1.2-6.42-2.31-11.29-2.19-1.12.03-4.91,1.04-4.59-1.21.13-.89,2.55-1.71,3.34-1.92,6.78-1.85,12.32,2.42,18.86,2.94,4.64.37,10.65-.92,12.27-5.89-1.8-.28-3.72,1.4-5.03-.6-1.19-1.81-.81-4.2,1.09-5.3ZM96.15,72.09c.88-2.1-2.15-.75-1.1-.06l1.1.06ZM63.21,74.37c-.72.06-1.43.51-2.06.84-6.15,3.2-10.3,8.15-12.08,14.89-.4,1.5-.79,3.36-.75,4.87,1.26-1.46,3.2-2.14,4.96-2.81-.78,5.63,1.1,12.03,6.27,14.98.28-.15-.04-.45-.13-.62-3.26-5.85-4.28-9.79-1.84-16.33l2.25-4.58c-1.27.33-2.57.69-3.79,1.17-.78.3-1.82,1.07-2.48,1.26-.26.08-.33-.02-.27-.27,2.35-5.2,5.6-9.67,9.92-13.39Z"/>
  <g>
    <path class="cls-1" d="M27.08,65.06l-8.28-3.63-.97-2.5,2.24-5.11,2.5-.97,1.89.83-.96,2.19-1.28-.56-1.16.44-1.15,2.62.46,1.15,7.09,3.11,1.14-.44,1.15-2.62-.44-1.14-1.21-.53.96-2.19,1.79.79.97,2.5-2.24,5.11-2.5.97Z"/>
    <path class="cls-1" d="M33.15,56.1l-1.38-.94.49-.71-7.84-5.37-.49.71-1.38-.94,4.38-6.39,2.63-.49,2.45,1.68.34,1.8,1.8-.34,3.06,2.1.49-.71,1.38.94-1.83,2.67-4.08-2.79-1.26.24-1.77,2.58,3.45,2.36.49-.71,1.38.94-2.32,3.38ZM30.56,46.61l-.22-1.25-1.56-1.07-1.24.25-1.77,2.58,3.03,2.07,1.77-2.58Z"/>
    <path class="cls-1" d="M39.6,46.91l-1.19-1.17.61-.62-6.79-6.64-.6.62-1.19-1.17,6.3-6.44,1.6,1.57-1.15,1.18-.41-.4-2.88,2.95,2.81,2.75,1.51-1.55-.41-.4,1.17-1.19,1.99,1.94-1.17,1.19-.4-.39-1.51,1.55,2.8,2.74,2.88-2.95-.41-.4,1.15-1.18,1.61,1.57-6.3,6.44Z"/>
    <path class="cls-1" d="M45.78,38.07l-.92-1.29,1.94-1.39.55.77,1.21.2,2.33-1.67.2-1.21-1.25-1.74-1.21-.2-3.43,2.46-2.66-.45-2.03-2.83.44-2.64,4.54-3.25,2.64.44.97,1.36-1.94,1.39-.59-.82-1.22-.22-2.33,1.67-.19,1.22,1.26,1.76,1.23.23,3.43-2.46,2.64.44,1.99,2.78-.44,2.64-4.54,3.25-2.64-.44Z"/>
    <path class="cls-1" d="M55.29,31.49l-3.81-8.2.92-2.52,5.06-2.35,2.52.92.87,1.87-2.17,1.01-.59-1.27-1.16-.44-2.6,1.21-.41,1.17,3.26,7.02,1.15.42,2.6-1.21.42-1.15-.56-1.2,2.17-1.01.82,1.77-.92,2.52-5.06,2.35-2.52-.92Z"/>
    <path class="cls-1" d="M65.82,28.83l-.43-1.61.84-.22-2.43-9.18-.84.22-.43-1.61,8.7-2.31.57,2.17-1.59.42-.15-.56-3.98,1.05,1.01,3.8,2.09-.55-.15-.56,1.61-.43.71,2.69-1.61.43-.14-.54-2.09.55,1,3.78,3.98-1.05-.15-.56,1.59-.42.57,2.17-8.7,2.3Z"/>
    <path class="cls-1" d="M75.19,26.28l-.12-1.66.86-.06-.69-9.47-.86.06-.12-1.66,3.31-.24,5.97,8.47-.53-7.19-.86.06-.12-1.66,4.09-.3.12,1.66-.86.06.69,9.47.86-.06.12,1.66-3.41.25-5.85-8.29.51,7.01.86-.06.12,1.66-4.09.3Z"/>
    <path class="cls-1" d="M88.98,15.25l.31-2.49,10.51,1.3-.31,2.49-1.66-.21.1-.84-2.41-.3-1.17,9.42.86.11-.21,1.66-4.09-.51.21-1.66.86.11,1.17-9.42-2.43-.3-.1.84-1.64-.2Z"/>
    <path class="cls-1" d="M105.13,28.7l.69-1.52.79.36,3.9-8.66-.79-.36.69-1.52,3.74,1.68-.69,1.52-.79-.36-1.46,3.25,4.02,1.81,1.46-3.25-.81-.36.69-1.52,3.78,1.7-.69,1.52-.81-.36-3.9,8.66.81.36-.69,1.52-3.78-1.7.69-1.52.81.36,1.63-3.63-4.02-1.81-1.63,3.63.79.36-.69,1.52-3.74-1.68Z"/>
    <path class="cls-1" d="M117.2,32.31l5.2-7.4,2.64-.46,4.57,3.21.46,2.64-5.2,7.4-2.64.46-4.57-3.21-.46-2.64ZM119.73,34.37l2.34,1.65,1.21-.21,4.46-6.33-.2-1.22-2.34-1.65-1.22.23-4.46,6.33.21,1.21Z"/>
    <path class="cls-1" d="M132.82,32.26l1.2-1.16,2.85,2.95-1.2,1.16-.6-.62-6.21,5.99v1.25s1.97,2.03,1.97,2.03l1.24.04,6.21-5.99-.6-.62,1.2-1.16,2.85,2.95-1.2,1.16-.59-.61-6.67,6.43-2.69-.06-3.86-4,.05-2.68,6.67-6.43-.6-.62Z"/>
    <path class="cls-1" d="M134.79,47.99l1.33-.86,1.3,2-.79.52-.25,1.2,1.56,2.4,1.2.25,1.8-1.17.25-1.2-2.3-3.54.57-2.63,2.92-1.9,2.62.56,3.04,4.68-.56,2.62-1.4.91-1.3-2,.85-.55.27-1.21-1.56-2.4-1.21-.24-1.81,1.18-.29,1.22,2.3,3.54-.56,2.62-2.87,1.86-2.62-.56-3.04-4.68.56-2.62Z"/>
    <path class="cls-1" d="M138.91,58.05l1.54-.65.34.8,8.74-3.71-.34-.8,1.54-.65,3.51,8.29-2.07.88-.64-1.52.53-.23-1.61-3.79-3.62,1.54.84,1.99.53-.23.65,1.54-2.56,1.09-.65-1.54.51-.22-.84-1.99-3.6,1.53,1.61,3.79.53-.23.64,1.52-2.07.88-3.51-8.29Z"/>
  </g>
  <g>
    <path class="cls-1" d="M38.86,128.86l1.19-1.85,4.94,3.16-1.19,1.85-1.03-.66-2.75,10.94,8.76-7.1-.89-.57,1.19-1.85,5.4,3.45-1.19,1.85-.87-.56-2.77,10.93,8.76-7.1-.89-.57,1.19-1.85,4.8,3.07-1.19,1.85-1.1-.7-10.27,8.29.96.61-1.19,1.85-6.43-4.11,1.19-1.85.89.57,2.31-9.2-7.36,5.96.89.57-1.19,1.85-6.43-4.11,1.19-1.85.96.61,3.2-12.81-1.1-.7Z"/>
    <path class="cls-1" d="M61.56,155.25l2.76-11.6,3.01-1.85,7.16,1.71,1.85,3.01-2.77,11.6-3.01,1.85-7.16-1.71-1.85-3.01ZM65.66,156.53l3.67.88,1.37-.84,2.37-9.93-.84-1.4-3.67-.88-1.38.87-2.37,9.93.84,1.37Z"/>
    <path class="cls-1" d="M78.05,161.15l.04-2.2,1.14.02.23-12.52-1.14-.02.04-2.2,5.4.1-.04,2.2-1.14-.02-.23,12.52,5.51.1.02-1.11,2.2.04-.06,3.31-11.97-.22Z"/>
    <path class="cls-1" d="M91.43,146.82l-.47-2.15,5.44-1.18.47,2.15-1.03.23,5.78,9.72,1.22-11.24-1.03.23-.47-2.15,5.65-1.23.47,2.15-1.35.29-1.45,13.13,1.33-.29.47,2.15-7.83,1.7-.47-2.15,1.19-.26-6.75-11.34-1.17.25Z"/>
    <path class="cls-1" d="M115.42,155.73l-.97-1.97,1.02-.5-5.54-11.23-1.02.5-.97-1.97,10.64-5.25,1.31,2.65-1.95.96-.34-.68-4.87,2.4,2.29,4.65,2.56-1.26-.34-.68,1.97-.97,1.62,3.29-1.97.97-.32-.66-2.56,1.26,2.28,4.63,4.87-2.4-.34-.68,1.95-.96,1.31,2.65-10.64,5.25Z"/>
    <path class="cls-1" d="M128.8,145.82l-1.3-1.63,2.46-1.96.78.98,1.6.18,2.95-2.35.18-1.6-1.76-2.21-1.6-.18-4.35,3.47-3.53-.42-2.86-3.59.4-3.51,5.75-4.59,3.51.4,1.37,1.72-2.46,1.96-.83-1.04-1.62-.2-2.95,2.35-.16,1.62,1.78,2.23,1.64.22,4.35-3.47,3.51.4,2.81,3.52-.4,3.51-5.75,4.59-3.51-.4Z"/>
  </g>
</svg>